<?xml version="1.0" standalone="no"?>
<!DOCTYPE svg PUBLIC "-//W3C//DTD SVG 20010904//EN"
 "http://www.w3.org/TR/2001/REC-SVG-20010904/DTD/svg10.dtd">
<svg version="1.0" xmlns="http://www.w3.org/2000/svg"
 width="260.000000pt" height="260.000000pt" viewBox="0 0 260.000000 260.000000"
 preserveAspectRatio="xMidYMid meet">
<metadata>
Created by potrace 1.14, written by Peter Selinger 2001-2017
</metadata>
<g transform="translate(0.000000,260.000000) scale(0.100000,-0.100000)"
fill="#000000" stroke="none">
<path d="M1238 2558 c10 -13 6 -14 -38 -10 -34 3 -55 0 -67 -9 -14 -12 -16
-12 -9 0 6 9 5 12 -5 9 -8 -3 -13 -11 -11 -17 1 -7 -2 -10 -8 -6 -6 3 -8 10
-5 15 3 5 0 12 -6 16 -8 4 -9 3 -5 -4 4 -7 2 -12 -4 -12 -6 0 -9 -4 -5 -9 3
-5 0 -13 -6 -17 -8 -4 -9 -3 -5 4 4 7 2 12 -4 12 -6 0 -9 4 -6 9 4 5 -5 4 -19
-2 -14 -7 -25 -15 -25 -19 0 -5 -5 -8 -11 -8 -5 0 -8 4 -5 8 3 5 -1 9 -9 9
-18 0 -19 -9 -2 -26 6 -8 -1 -5 -18 5 -16 11 -26 15 -23 9 3 -5 -6 -19 -21
-29 l-26 -20 19 22 c18 20 18 21 -2 19 -11 0 -18 -5 -16 -9 3 -4 -1 -9 -8 -9
-34 -4 -54 -6 -63 -9 -5 -1 -14 -2 -18 -1 -5 1 -6 -3 -2 -9 5 -8 11 -8 19 -1
9 8 13 7 13 -3 0 -7 -10 -13 -21 -12 -13 1 -20 -4 -18 -12 1 -8 -2 -11 -8 -7
-6 3 -8 11 -5 16 4 5 1 9 -4 9 -6 0 -11 -6 -11 -14 0 -8 -4 -18 -10 -21 -6 -4
-7 1 -4 12 4 11 -4 6 -21 -12 -14 -16 -23 -23 -19 -15 12 22 14 41 3 34 -5 -3
-6 -10 -3 -16 5 -7 2 -9 -8 -5 -12 4 -14 1 -11 -14 3 -11 0 -19 -6 -19 -7 0
-10 4 -7 8 2 4 -4 8 -15 8 -12 0 -15 -4 -9 -10 16 -16 11 -30 -5 -16 -8 7 -15
9 -15 4 0 -5 -5 -2 -11 6 -9 13 -10 13 -6 0 2 -8 10 -14 16 -12 7 1 10 -2 6
-8 -3 -6 -10 -8 -15 -5 -4 3 -10 -1 -13 -7 -3 -10 -7 -10 -21 1 -14 12 -16 12
-10 -2 4 -11 -2 -20 -20 -28 -14 -7 -23 -16 -20 -20 3 -5 -2 -9 -11 -9 -10 0
-14 5 -9 13 5 9 4 9 -5 1 -7 -6 -13 -20 -14 -32 -1 -17 -4 -19 -22 -10 -18 10
-19 10 -5 -7 14 -17 13 -18 -12 -13 -19 4 -25 1 -21 -9 3 -7 10 -10 17 -6 6 3
3 -3 -8 -15 -10 -12 -23 -19 -27 -16 -5 3 -9 0 -9 -6 0 -6 -4 -8 -10 -5 -6 3
-7 -1 -4 -9 3 -9 1 -16 -5 -16 -6 0 -11 5 -11 12 0 6 -3 8 -6 5 -4 -4 -1 -13
5 -21 9 -11 9 -16 0 -22 -7 -4 -9 -3 -6 3 4 6 1 13 -7 16 -9 4 -12 -2 -10 -18
2 -18 -2 -22 -14 -17 -15 5 -15 3 -4 -10 11 -14 10 -16 -7 -11 -12 3 -18 10
-14 16 3 6 1 7 -6 3 -9 -6 -9 -11 1 -24 10 -12 10 -16 0 -19 -6 -3 -9 -10 -5
-16 4 -7 -1 -6 -10 2 -15 12 -17 12 -11 -3 5 -13 2 -15 -12 -9 -18 7 -18 6 -1
-11 19 -19 23 -31 7 -21 -6 4 -17 1 -26 -5 -12 -10 -12 -16 -2 -28 11 -13 11
-14 -1 -7 -11 6 -13 4 -8 -9 5 -11 3 -15 -5 -10 -7 5 -9 2 -5 -8 3 -9 0 -21
-6 -27 -6 -6 -7 -11 -3 -11 5 0 3 -6 -4 -14 -6 -8 -19 -13 -28 -10 -9 3 -6 -2
8 -11 l25 -16 -25 7 c-22 6 -23 5 -12 -9 11 -13 10 -17 -8 -27 -12 -6 -19 -17
-17 -23 2 -7 -8 -20 -22 -29 -14 -10 -21 -18 -16 -18 6 0 16 5 23 12 8 8 12 8
12 1 0 -14 -25 -34 -33 -27 -4 4 -5 -3 -2 -14 2 -12 0 -24 -5 -27 -5 -3 -6
-15 -1 -28 10 -26 -4 -71 -19 -62 -5 3 -10 8 -10 11 0 3 4 2 10 -1 5 -3 10 -1
10 5 0 21 -23 4 -25 -18 -1 -11 3 -18 8 -15 5 3 7 0 5 -8 -3 -8 -11 -13 -17
-11 -7 1 -10 -2 -6 -8 3 -6 10 -8 14 -6 10 7 7 -32 -4 -41 -4 -5 -5 -3 -1 4 3
6 2 14 -3 18 -9 5 -9 -2 -1 -40 5 -23 -1 -34 -15 -29 -8 4 -15 1 -15 -4 0 -6
8 -13 17 -15 13 -3 14 -5 3 -6 -8 -1 -24 -14 -34 -29 l-19 -27 26 24 c15 14
30 21 34 18 3 -4 1 -7 -6 -7 -7 0 -11 -7 -8 -15 4 -8 1 -17 -5 -21 -7 -5 -8
-2 -3 7 6 11 5 12 -5 2 -11 -10 -9 -16 10 -33 13 -11 19 -20 14 -20 -6 0 -16
6 -23 13 -10 10 -12 9 -9 -3 2 -8 12 -22 23 -32 20 -17 20 -17 -2 -11 -14 3
-23 1 -23 -6 0 -6 3 -10 8 -10 4 1 14 1 22 -1 11 -1 9 -4 -5 -10 l-20 -9 20
-1 20 -1 -20 -9 c-17 -7 -17 -9 -2 -9 9 -1 17 -4 18 -8 0 -5 2 -16 4 -25 2
-12 -2 -15 -13 -11 -15 4 -15 3 1 -10 20 -17 22 -28 5 -23 -7 1 -10 1 -5 -1 4
-3 5 -9 2 -14 -4 -5 0 -6 8 -3 15 5 17 -22 2 -45 -5 -10 -4 -12 3 -7 7 4 12 2
12 -4 0 -6 4 -9 9 -5 9 5 5 -40 -5 -56 -2 -4 1 -11 7 -15 7 -4 9 -3 5 4 -3 6
-3 13 2 16 5 3 7 -13 6 -35 -1 -21 1 -39 5 -39 11 0 8 -44 -4 -53 -6 -5 -4 -7
5 -4 8 2 14 11 12 20 -1 8 1 18 6 21 5 3 8 -6 6 -21 -1 -14 -9 -30 -16 -34 -9
-6 -6 -9 10 -9 14 0 20 -4 17 -10 -4 -6 -3 -16 3 -23 14 -19 23 -49 12 -42
-15 10 -12 -2 6 -20 9 -9 17 -27 17 -40 -1 -14 3 -22 8 -19 5 3 9 0 9 -6 0 -6
5 -8 12 -4 7 4 8 3 4 -4 -4 -6 -12 -10 -19 -8 -7 1 -9 1 -4 -1 4 -3 5 -8 3
-12 -3 -4 1 -8 9 -8 8 0 15 4 15 9 0 5 5 6 11 2 8 -4 7 -9 -2 -15 -10 -6 -7
-13 12 -29 13 -12 18 -19 12 -15 -21 10 -15 -9 7 -25 11 -8 20 -22 20 -32 0
-16 11 -23 33 -19 5 1 6 -3 3 -8 -4 -5 4 -19 16 -30 12 -12 17 -21 10 -21 -6
0 -14 4 -17 10 -3 5 -12 10 -18 9 -9 0 -8 -2 1 -6 6 -2 10 -8 8 -12 -3 -4 5
-8 16 -8 26 -2 28 -4 30 -35 2 -18 7 -24 17 -20 10 4 12 1 6 -9 -7 -12 -6 -12
11 1 10 8 16 10 12 6 -4 -5 0 -15 10 -23 9 -8 12 -12 5 -9 -6 4 -15 1 -19 -6
-4 -7 -4 -10 1 -6 4 4 18 -6 32 -23 21 -25 28 -28 42 -17 9 7 13 8 9 4 -4 -5
0 -15 10 -23 16 -12 16 -13 -3 -7 -18 5 -18 4 2 -8 12 -7 21 -17 20 -22 -2 -8
13 -13 54 -18 9 -1 15 -7 12 -13 -2 -7 4 -18 14 -26 16 -13 17 -12 5 3 -9 11
-10 18 -2 23 6 4 10 3 9 -2 -3 -12 23 -63 32 -63 4 0 11 5 14 10 4 6 1 9 -6 8
-6 -2 -14 4 -16 12 -4 13 -3 13 6 0 6 -8 11 -11 11 -6 0 5 7 3 15 -4 12 -10
13 -16 4 -26 -14 -17 2 -19 19 -2 9 9 12 9 12 0 0 -7 3 -11 8 -11 19 3 32 -2
32 -12 0 -8 -4 -8 -14 0 -11 9 -16 9 -22 0 -4 -8 -3 -9 5 -5 6 4 14 0 17 -9 6
-13 8 -14 15 -3 7 11 11 10 19 -2 5 -8 10 -11 10 -6 0 5 9 1 20 -9 11 -10 18
-21 15 -25 -2 -4 2 -7 10 -7 8 0 12 4 10 8 -3 4 2 10 11 13 8 3 12 2 9 -4 -3
-5 -2 -17 3 -26 8 -15 10 -15 15 0 5 11 3 15 -5 10 -7 -5 -8 -3 -3 6 5 9 14 4
32 -18 19 -25 28 -30 46 -23 14 6 32 4 50 -5 15 -8 27 -12 27 -9 0 4 7 0 15
-9 9 -8 23 -12 32 -9 12 5 14 3 8 -7 -5 -8 -4 -11 3 -6 6 4 8 14 5 23 -6 15
-5 16 9 3 9 -8 14 -18 12 -21 -2 -3 7 -5 19 -3 12 2 37 5 54 8 24 4 35 0 42
-12 7 -12 10 -13 11 -3 0 11 3 11 17 0 9 -8 14 -9 10 -3 -4 7 0 15 9 18 8 3
12 2 9 -4 -3 -6 0 -10 7 -11 7 0 21 -2 31 -4 9 -2 17 1 17 7 0 6 -7 8 -15 5
-8 -4 -17 -3 -19 2 -7 11 27 10 41 -1 7 -6 10 -15 6 -21 -3 -6 -1 -7 6 -3 6 4
8 13 4 19 -4 7 2 5 12 -3 14 -11 17 -11 11 -1 -7 10 -3 11 15 5 13 -4 31 -7
39 -7 8 0 21 -4 28 -10 8 -6 12 -6 12 2 0 6 7 11 16 11 8 0 13 4 10 8 -3 5 1
9 9 9 8 0 12 -4 9 -9 -3 -4 0 -8 6 -8 6 0 8 -5 4 -12 -4 -7 -3 -8 5 -4 6 4 9
11 6 16 -3 5 -1 11 5 15 5 3 10 1 10 -6 0 -10 3 -10 12 -1 19 19 32 14 17 -5
-12 -16 -12 -17 2 -6 9 7 20 9 24 5 5 -4 5 -1 0 7 -6 11 -3 13 13 9 12 -4 20
-2 17 2 -9 14 51 30 65 17 9 -9 11 -9 7 -1 -4 7 1 18 10 25 12 10 14 10 9 2
-10 -18 0 -16 24 4 11 10 25 19 30 19 6 1 11 2 13 3 1 2 12 4 25 7 16 3 21 0
16 -8 -4 -7 -3 -8 4 -4 7 4 12 14 12 23 0 9 3 13 7 10 3 -4 13 -1 21 6 9 6 13
7 10 2 -4 -6 2 -11 13 -11 23 0 23 0 2 22 -17 17 -17 18 0 11 11 -4 21 0 29
13 11 17 13 17 25 2 11 -15 12 -15 9 4 -3 12 1 21 9 21 7 0 11 -7 8 -16 -3
-12 -2 -12 7 2 6 9 9 21 5 26 -3 5 -1 12 4 15 5 4 13 1 17 -5 5 -8 3 -9 -6 -4
-9 5 -11 4 -6 -4 11 -16 26 -3 19 16 -4 11 -3 14 6 9 15 -10 43 13 37 30 -3 8
3 11 19 8 19 -3 23 -1 19 11 -5 12 -2 14 12 8 17 -6 17 -5 5 10 -12 15 -12 17
3 11 11 -4 16 -2 14 6 -2 7 3 15 10 17 8 3 10 -1 5 -14 -3 -11 3 -7 16 10 14
16 20 34 17 44 -6 14 -4 14 11 2 15 -12 16 -12 10 5 -5 13 -3 17 7 13 10 -4
13 -1 9 9 -4 10 0 13 13 8 17 -6 17 -5 -1 10 -11 10 -15 15 -8 11 13 -6 36 28
25 39 -3 4 1 4 10 1 14 -5 16 -2 13 16 -4 17 -2 20 7 11 7 -7 17 -12 23 -12 5
0 3 5 -5 10 -13 8 -13 11 -1 22 11 11 13 11 6 -1 -6 -10 -4 -12 5 -6 10 6 10
11 -4 20 -15 11 -15 13 -1 19 9 3 13 2 10 -4 -3 -6 -3 -10 2 -10 4 0 15 13 24
29 13 22 14 32 5 41 -8 10 -7 12 6 7 20 -7 34 8 17 19 -8 5 -9 3 -4 -6 6 -9 4
-11 -4 -6 -13 9 -6 21 11 21 6 0 13 6 16 14 3 9 0 11 -9 5 -11 -6 -12 -5 -2 8
7 8 9 19 5 24 -4 4 2 2 12 -6 18 -14 19 -14 6 10 -13 24 -12 24 6 10 18 -15
18 -14 1 12 -13 22 -14 26 -2 22 10 -4 13 0 10 14 -2 12 4 27 13 34 13 11 14
11 7 -1 -5 -10 -4 -12 4 -7 9 6 9 11 -1 24 -8 9 -8 13 -2 9 7 -4 14 -1 17 6 6
17 4 33 -5 29 -5 -1 -8 2 -8 8 0 5 5 10 11 10 5 0 7 6 3 13 -4 6 -4 9 1 5 4
-4 14 0 21 10 16 21 17 32 3 32 -5 0 -8 -4 -4 -9 3 -5 0 -13 -6 -17 -7 -4 -9
-3 -5 4 3 5 2 12 -2 14 -5 1 0 12 11 23 11 11 16 14 12 6 -5 -10 -4 -12 4 -7
6 4 8 13 4 19 -4 7 -8 19 -8 27 0 8 -4 21 -8 28 -5 6 -4 12 2 12 5 0 12 -6 15
-12 4 -7 4 -3 2 10 -3 18 -1 21 8 13 13 -11 13 12 2 81 -2 16 0 30 4 33 5 3 7
-4 5 -16 -2 -12 -1 -18 3 -15 4 4 7 11 7 14 0 4 4 13 9 21 6 9 5 12 -2 7 -16
-10 -25 13 -12 29 7 8 10 20 7 27 -2 7 0 21 5 32 7 13 7 16 -1 12 -18 -12 -12
26 7 40 12 10 13 13 2 9 -12 -4 -15 3 -12 40 2 25 9 45 15 45 6 0 7 3 4 6 -4
4 -13 1 -22 -6 -9 -7 -18 -10 -22 -6 -3 3 -1 6 6 6 8 0 10 8 6 23 -5 17 -4 19
4 7 8 -12 10 -10 8 8 -1 14 -6 21 -15 17 -7 -2 -11 -1 -7 4 3 5 2 11 -2 14 -5
2 -3 2 4 1 7 -2 15 2 19 8 4 7 3 8 -4 4 -7 -4 -12 -2 -12 4 0 7 -6 10 -13 7
-18 -7 -15 26 4 49 8 10 9 15 4 12 -6 -4 -17 3 -24 14 -11 18 -11 20 3 15 10
-4 13 -1 9 9 -3 7 -10 14 -17 15 -6 0 -2 4 9 9 13 6 15 9 5 9 -8 1 -21 11 -29
24 -13 21 -13 22 6 4 19 -16 20 -16 18 2 -1 11 -7 26 -14 35 -12 15 -8 20 12
17 5 -1 6 3 2 9 -4 7 -13 7 -27 -1 -13 -7 -18 -7 -14 -1 3 6 1 14 -5 18 -9 5
-7 11 6 21 11 7 13 13 6 13 -7 0 -9 5 -5 13 6 9 5 9 -8 -1 -13 -10 -15 -9 -10
14 4 21 2 25 -9 19 -12 -8 -12 -6 -1 8 19 22 6 42 -16 25 -12 -10 -14 -10 -8
-1 12 21 16 54 5 48 -5 -4 -6 -12 -2 -18 3 -7 -3 -4 -14 6 -11 9 -24 14 -29
10 -5 -5 -1 1 8 13 14 16 15 23 6 32 -15 15 -41 16 -32 0 4 -7 3 -8 -4 -4 -15
9 -15 12 3 30 14 13 13 15 -4 13 -11 0 -18 -4 -15 -8 2 -4 -1 -11 -7 -15 -8
-4 -9 -3 -5 4 4 7 2 12 -5 12 -8 0 -7 5 2 17 13 17 13 17 -13 0 -18 -11 -29
-13 -33 -6 -4 6 -4 13 -1 16 3 4 6 1 6 -6 0 -7 5 -9 10 -6 15 9 1 26 -18 24
-41 -4 -51 1 -47 22 4 21 4 21 -15 4 -20 -18 -20 -17 -20 14 0 18 4 30 9 26 5
-3 13 0 17 6 4 8 3 9 -4 5 -15 -9 -16 6 -1 21 8 8 7 13 -2 18 -8 6 -10 4 -4
-5 5 -9 4 -11 -3 -6 -9 5 -8 12 1 27 10 16 9 21 -3 29 -8 5 -11 12 -7 16 3 4
15 1 24 -7 17 -13 17 -13 1 7 -14 16 -15 23 -5 33 10 11 8 11 -12 1 -21 -11
-23 -10 -18 3 5 14 -17 32 -34 29 -3 0 -6 6 -6 14 0 12 3 12 18 -2 19 -17 33
-6 18 16 -8 13 -9 13 -9 1 0 -12 -3 -12 -12 -3 -7 7 -20 12 -31 12 -10 0 -15
5 -12 10 4 6 11 8 16 5 5 -3 6 1 2 10 -4 12 -8 13 -13 5 -6 -9 -9 -9 -11 -1
-3 7 -13 14 -24 15 -11 2 -19 9 -17 15 1 7 -3 11 -10 10 -19 -3 -48 11 -48 23
0 7 5 6 13 -1 8 -6 18 -7 22 -3 5 4 5 1 0 -7 -5 -10 -4 -12 4 -7 6 4 9 12 5
17 -3 5 -9 7 -14 4 -5 -3 -11 -1 -15 4 -3 6 -13 7 -22 4 -11 -4 -14 -3 -9 6 5
8 0 10 -18 7 -15 -3 -24 -1 -22 3 4 6 -55 48 -61 43 -10 -7 -23 0 -17 10 4 7
3 8 -5 4 -6 -4 -9 -13 -5 -19 3 -7 -2 -3 -10 7 -11 14 -16 15 -16 6 0 -9 -5
-7 -15 6 -8 10 -15 15 -15 10 0 -5 -7 -3 -15 4 -9 7 -18 10 -22 6 -3 -3 -1 -6
5 -6 7 0 12 -5 12 -11 0 -8 -4 -8 -15 1 -8 6 -20 8 -27 4 -7 -4 -4 3 7 17 11
13 13 19 5 13 -8 -6 -27 -14 -43 -16 -24 -5 -26 -3 -15 10 8 10 9 13 2 9 -7
-4 -15 0 -18 9 -5 13 -10 13 -36 -6 l-30 -21 -29 20 c-27 19 -30 20 -42 4 -12
-14 -12 -16 1 -8 8 4 12 4 7 0 -13 -15 -68 -13 -63 1 3 8 0 16 -6 20 -6 4 -8
3 -5 -3 4 -6 -1 -17 -10 -24 -12 -10 -14 -10 -9 -1 7 12 -4 16 -33 13 -8 -2
-10 3 -6 11 3 7 -3 2 -14 -11 -19 -21 -27 -17 -22 13 1 6 -3 5 -11 0 -21 -16
-68 -17 -85 -2 -9 7 -14 8 -10 2 4 -7 -1 -18 -10 -25 -9 -8 -14 -9 -11 -4 4 6
-3 17 -15 25 -19 12 -21 11 -9 -2z m342 -13 c7 -9 8 -15 2 -15 -5 0 -12 7 -16
15 -3 8 -4 15 -2 15 2 0 9 -7 16 -15z m95 -4 c-3 -6 -11 -11 -17 -11 -6 0 -6
6 2 15 14 17 26 13 15 -4z m-301 -3 c-3 -4 -9 -8 -15 -8 -5 0 -9 4 -9 8 0 5 7
9 15 9 8 0 12 -4 9 -9z m516 -68 c0 -5 -5 -10 -11 -10 -5 0 -7 5 -4 10 3 6 8
10 11 10 2 0 4 -4 4 -10z m40 -12 c0 -6 -6 -5 -15 2 -8 7 -15 14 -15 16 0 2 7
1 15 -2 8 -4 15 -11 15 -16z m-687 -322 c15 -2 30 1 34 7 3 6 2 7 -4 4 -5 -3
-10 0 -10 8 0 11 4 12 14 4 10 -9 13 -8 14 2 0 10 2 11 6 2 2 -7 11 -13 19
-13 9 0 13 -4 10 -8 -3 -5 1 -9 9 -9 18 0 19 9 3 27 -11 12 -10 12 3 2 9 -6
20 -8 24 -4 5 4 4 1 0 -7 -6 -11 -4 -13 8 -8 9 3 19 2 22 -3 3 -5 12 -7 20 -3
8 3 15 0 15 -7 0 -6 -4 -9 -8 -6 -5 3 -9 -1 -9 -9 0 -10 5 -11 19 -4 17 9 23
2 19 -23 0 -4 9 -5 21 -3 23 5 38 -10 64 -63 9 -18 19 -30 22 -27 3 3 0 11 -6
17 -20 20 -13 29 6 11 11 -10 17 -22 14 -27 -3 -5 2 -7 11 -3 12 4 14 2 10
-11 -6 -14 -4 -15 8 -5 11 9 18 8 32 -1 9 -7 17 -17 17 -21 0 -5 -9 0 -20 10
-19 17 -20 17 -20 1 0 -9 4 -15 9 -11 5 3 13 0 16 -5 5 -8 14 -5 28 7 20 17
21 17 8 0 -11 -14 -11 -21 -3 -29 7 -7 12 -8 12 -3 0 6 5 3 11 -5 9 -13 10
-13 6 0 -2 8 -11 13 -18 12 -8 -2 -10 0 -6 4 10 10 37 14 36 6 -3 -19 2 -23
14 -13 10 8 14 7 14 -4 0 -8 -4 -12 -8 -9 -4 2 -10 0 -14 -5 -3 -6 3 -8 15 -6
11 2 20 -2 20 -8 0 -7 4 -6 10 3 5 8 10 10 10 3 0 -6 13 -10 29 -9 18 1 27 -2
24 -9 -2 -7 3 -12 11 -12 8 0 13 4 10 8 -2 4 2 9 8 12 17 5 39 -3 33 -12 -2
-4 2 -8 10 -8 8 0 12 4 9 9 -3 4 14 8 38 8 24 0 49 5 54 10 7 7 10 2 10 -14 0
-14 -4 -22 -8 -20 -5 3 -5 10 -2 16 4 7 2 8 -4 4 -6 -4 -9 -13 -5 -21 3 -9 0
-22 -6 -29 -8 -10 -9 -16 -1 -21 6 -3 8 -10 5 -15 -8 -12 25 -41 37 -34 7 4 8
2 4 -5 -4 -6 -11 -9 -16 -6 -5 3 -12 0 -16 -6 -4 -8 -3 -9 4 -5 7 4 12 2 12
-4 0 -6 5 -8 11 -4 7 4 6 -2 -2 -17 -11 -21 -11 -23 3 -11 13 10 18 10 24 1 4
-8 3 -9 -4 -5 -17 11 -15 -3 4 -22 15 -15 15 -16 -2 -23 -18 -7 -18 -8 1 -8
11 -1 27 -6 35 -12 12 -9 11 -10 -5 -5 -17 5 -16 3 4 -12 15 -12 21 -24 16
-32 -5 -9 -2 -10 12 -6 13 4 20 2 20 -8 0 -9 -3 -13 -7 -11 -3 2 -12 0 -19 -4
-9 -6 -5 -9 13 -10 58 -3 58 -3 41 -21 -19 -21 0 -46 22 -29 13 12 19 -2 6
-15 -4 -3 -8 -14 -9 -23 -2 -12 0 -13 9 -4 15 15 30 14 21 -1 -5 -7 -2 -9 8
-6 11 5 14 0 12 -18 -2 -19 3 -24 19 -25 13 0 16 -3 8 -6 -11 -5 -11 -7 0 -15
10 -7 8 -8 -9 -5 -12 3 -20 1 -16 -4 3 -5 15 -9 27 -9 18 0 19 -2 7 -10 -12
-8 -12 -10 5 -11 l20 0 -20 -9 c-11 -5 -14 -9 -7 -9 6 -1 12 -10 12 -21 0 -11
6 -20 13 -20 8 0 8 -3 -2 -9 -13 -8 -13 -12 0 -27 9 -11 9 -15 2 -10 -9 5 -13
-1 -13 -19 0 -18 4 -24 12 -19 10 6 10 5 1 -8 -7 -8 -10 -18 -6 -21 3 -4 1 -7
-6 -7 -8 0 -11 7 -6 18 5 13 4 14 -6 5 -8 -8 -9 -16 -2 -25 5 -7 13 -22 16
-33 7 -19 6 -19 -7 -2 -12 16 -14 16 -20 2 -3 -9 -2 -13 4 -10 6 3 10 3 11 -2
0 -4 2 -16 4 -26 2 -9 -1 -15 -6 -11 -5 3 -7 10 -4 15 11 17 -2 9 -21 -13 -14
-17 -15 -19 -2 -10 15 12 17 10 16 -17 -1 -17 -5 -28 -10 -25 -4 3 -8 1 -8 -5
0 -5 6 -12 13 -14 6 -3 2 -6 -10 -6 -13 -1 -23 -6 -23 -12 0 -5 4 -8 9 -4 5 3
13 0 17 -6 4 -8 3 -9 -4 -5 -12 7 -16 -4 -13 -34 2 -13 1 -13 -8 0 -5 8 -7 18
-4 24 4 5 1 6 -6 2 -7 -5 -10 -14 -8 -20 6 -16 -9 -41 -24 -41 -7 0 -14 -6
-16 -12 -3 -7 0 -13 7 -13 6 0 8 5 4 12 -4 6 -3 8 4 4 12 -7 -27 -96 -42 -96
-6 0 -5 5 2 12 14 14 16 28 3 28 -14 0 -19 -35 -9 -54 9 -16 8 -16 -14 -5 -20
11 -22 10 -10 -3 10 -13 7 -20 -23 -43 -29 -22 -34 -29 -24 -41 10 -12 9 -13
-6 -8 -12 5 -16 4 -11 -4 3 -6 1 -14 -5 -18 -8 -4 -9 -3 -5 4 4 7 2 12 -5 12
-7 0 -9 -8 -6 -21 5 -17 3 -18 -11 -7 -13 11 -15 11 -9 -4 4 -11 2 -17 -5 -15
-6 1 -13 -4 -16 -12 -3 -9 0 -11 8 -6 8 5 11 4 7 -2 -4 -6 -21 -10 -38 -9 -29
2 -30 1 -13 -12 18 -14 18 -14 -4 -9 -12 3 -20 1 -16 -4 5 -8 -10 -13 -29 -10
-5 1 -6 -3 -2 -9 3 -6 12 -7 18 -3 7 4 7 0 -1 -10 -8 -9 -22 -19 -33 -22 -11
-4 -16 -11 -13 -18 5 -8 2 -8 -7 0 -19 18 -32 16 -25 -4 6 -16 6 -16 -12 0
-17 15 -21 16 -31 3 -14 -16 2 -32 21 -20 7 5 8 3 4 -5 -5 -7 -15 -10 -23 -6
-9 3 -25 -3 -36 -12 -11 -10 -17 -12 -13 -6 4 8 1 13 -9 13 -9 0 -14 -4 -11
-9 3 -4 -6 -6 -21 -3 -20 4 -24 2 -18 -9 5 -8 -2 -5 -16 6 -21 18 -22 18 -9 1
14 -18 13 -19 -17 -14 -24 3 -30 1 -23 -7 7 -8 5 -12 -5 -12 -8 0 -15 5 -16
11 0 6 -4 2 -9 -9 -7 -17 -9 -17 -9 -2 -1 9 -6 17 -12 17 -6 0 -9 -6 -6 -14 4
-9 0 -13 -11 -11 -9 1 -23 -3 -31 -9 -8 -6 -12 -6 -9 -1 4 6 -1 19 -9 30 -15
20 -15 20 -8 -2 8 -27 2 -29 -19 -7 -15 14 -16 13 -16 -8 0 -13 -3 -18 -8 -12
-8 14 -54 13 -65 -1 -5 -6 -7 -3 -3 7 3 10 1 20 -5 23 -5 4 -9 3 -8 -2 3 -20
-2 -27 -10 -14 -8 12 -12 13 -26 1 -13 -11 -18 -11 -28 0 -10 10 -9 11 2 5 10
-6 12 -4 7 4 -6 9 -13 8 -27 -5 -10 -9 -19 -13 -19 -8 0 5 -5 2 -11 -6 -8 -13
-9 -12 -7 4 2 10 -3 21 -11 24 -8 3 -11 0 -7 -7 10 -16 -1 -14 -23 6 -20 17
-64 26 -55 12 2 -4 -4 -7 -15 -6 -13 1 -17 5 -11 12 5 6 -3 10 -26 10 -19 0
-34 -4 -34 -9 0 -5 -3 -6 -6 -3 -4 4 -1 13 6 22 11 13 10 14 -5 9 -14 -6 -16
-4 -10 6 5 8 4 11 -3 6 -6 -3 -13 -2 -17 4 -3 5 -12 10 -18 10 -7 0 -6 -4 3
-10 8 -5 13 -10 10 -11 -3 0 -13 -2 -23 -4 -9 -2 -15 0 -12 5 6 9 -23 22 -35
15 -4 -3 -6 5 -3 17 5 22 5 22 -9 5 -13 -18 -15 -17 -33 4 -11 12 -14 19 -7
15 6 -4 12 -2 12 3 0 6 -9 11 -20 11 -11 0 -20 5 -20 11 0 8 -5 7 -15 -1 -13
-11 -14 -10 -9 4 4 11 2 16 -7 14 -9 -2 -13 4 -11 17 2 19 2 19 -11 2 -8 -9
-18 -17 -22 -17 -4 0 -3 6 2 13 19 23 11 44 -13 39 -16 -3 -27 4 -40 25 -10
15 -23 31 -28 34 -5 4 -6 15 -2 24 5 15 4 16 -8 6 -11 -9 -15 -8 -20 5 -3 9
-4 19 -1 24 2 4 -8 7 -23 6 -18 -1 -27 4 -27 14 -1 8 -6 14 -11 13 -6 -1 -10
13 -9 31 0 26 -3 32 -14 28 -11 -4 -13 -1 -8 13 7 16 5 16 -10 4 -11 -9 -14
-10 -9 -2 14 24 14 50 0 50 -11 0 -11 -3 -1 -16 11 -14 10 -14 -6 -2 -14 11
-15 16 -5 29 11 13 10 15 -2 10 -8 -3 -22 2 -30 10 -13 14 -13 15 0 10 8 -3
21 1 28 8 10 11 10 13 -5 11 -10 -1 -19 2 -20 7 -1 5 -7 12 -14 16 -7 5 -13
16 -14 27 -4 32 -17 53 -29 46 -6 -4 -4 2 4 12 14 17 13 18 -2 12 -10 -3 -20
-1 -24 5 -4 7 -3 8 4 4 7 -4 12 -1 12 8 0 20 -17 30 -24 14 -2 -7 -4 -3 -2 9
1 12 6 26 11 30 4 5 5 2 0 -6 -6 -10 -4 -12 5 -6 10 6 8 12 -9 27 -21 16 -21
18 -5 18 15 0 16 2 5 9 -8 5 -21 7 -30 4 -12 -3 -12 -2 2 7 9 6 23 8 30 5 6
-3 2 2 -10 11 -24 17 -30 34 -12 34 5 0 7 -5 3 -12 -4 -7 -3 -8 5 -4 14 9 5
26 -15 26 -8 0 -14 5 -14 11 0 5 4 8 9 4 5 -3 13 -1 16 5 4 6 3 9 -2 8 -4 -2
-10 2 -11 7 -2 6 -8 16 -14 23 -8 9 -7 11 6 6 9 -3 16 -1 16 5 0 6 -4 11 -10
11 -5 0 -10 5 -10 11 0 5 5 7 11 3 8 -5 8 -1 0 14 -9 16 -8 24 5 36 8 9 12 16
7 16 -5 0 -15 -6 -22 -12 -10 -11 -11 -10 -6 5 4 9 12 17 19 17 6 0 4 5 -4 10
-13 8 -13 10 -1 10 11 0 10 4 -5 16 -10 8 -13 13 -6 9 6 -3 12 -1 12 5 0 6 5
8 12 4 7 -5 8 -3 3 5 -4 7 -16 11 -26 8 -11 -3 -17 -1 -13 4 3 5 11 9 19 9 21
0 27 17 15 39 -7 15 -6 23 6 35 8 9 11 16 6 16 -5 0 -9 7 -9 15 0 10 4 12 12
5 7 -6 11 -3 12 11 1 11 -2 17 -6 15 -4 -3 -8 1 -8 9 0 11 5 12 21 3 17 -8 19
-8 9 2 -9 10 -7 17 13 33 24 18 24 20 8 39 -17 18 -17 19 1 12 12 -5 16 -4 11
4 -4 7 1 10 15 7 17 -3 19 -2 9 10 -10 11 -7 15 15 21 16 4 24 12 21 19 -3 8
2 16 11 19 9 4 13 9 10 13 -11 10 14 34 27 26 17 -11 37 -12 30 -2 -3 5 -10 7
-15 4 -5 -4 -9 -1 -9 4 0 10 22 16 43 12 5 -1 6 3 3 8 -4 5 2 14 11 20 10 6
12 11 6 11 -9 0 -8 6 4 19 13 16 20 18 37 9 18 -10 19 -9 9 4 -17 19 -4 31 15
15 13 -10 15 -9 9 6 -6 15 -3 17 13 12 13 -4 22 -1 26 10 5 12 10 13 20 4 10
-9 12 -6 9 13 -4 22 -4 22 10 4 15 -20 15 -20 16 0 1 10 1 23 0 27 -1 5 3 6 9
2 6 -3 8 -10 5 -15 -3 -4 3 -7 12 -5 10 2 21 4 26 4 4 1 7 6 7 12 0 8 -5 8
-15 -1 -10 -9 -15 -9 -15 -1 0 6 5 11 11 11 5 0 7 6 3 13 -4 6 2 4 13 -6 13
-11 23 -14 27 -8 4 5 15 8 26 6 12 -2 18 0 15 5 -6 9 -24 8 -41 -2 -6 -4 -11
-1 -11 6 0 8 7 13 16 11 9 -1 22 3 30 9 11 8 13 8 8 0 -4 -8 5 -11 31 -9 20 2
38 4 40 5 1 2 8 3 15 4 6 1 11 8 9 17 -1 11 5 15 20 13 13 -1 29 -3 36 -3 7
-1 10 -6 6 -13 -4 -7 -3 -8 5 -4 6 4 9 11 6 16 -8 13 21 20 34 7 8 -8 11 -6
11 8 0 18 1 18 13 1 7 -9 25 -19 40 -20z m2 22 c5 4 5 1 1 -6 -6 -10 -11 -10
-22 -1 -8 6 -14 14 -14 16 0 3 6 0 13 -6 8 -6 18 -7 22 -3z m-961 -146 c3 -5
-1 -9 -9 -9 -8 0 -12 4 -9 9 3 4 7 8 9 8 2 0 6 -4 9 -8z m371 -81 c-3 -6 -11
-11 -16 -11 -5 0 -4 6 3 14 14 16 24 13 13 -3z m1324 -22 c-22 -13 -31 -11
-17 5 7 8 17 12 22 9 4 -3 2 -9 -5 -14z m-1429 -69 c0 -5 -5 -10 -11 -10 -5 0
-7 5 -4 10 3 6 8 10 11 10 2 0 4 -4 4 -10z m1456 -35 c0 -13 -3 -22 -8 -19 -4
3 -6 9 -3 14 3 5 1 11 -5 15 -6 4 -8 11 -4 16 9 15 18 2 20 -26z m-1844 -62
c-6 -2 -9 -10 -6 -15 4 -7 2 -8 -5 -4 -13 9 -5 26 12 25 9 0 8 -2 -1 -6z m338
2 c0 -2 -10 -10 -22 -16 -21 -11 -22 -11 -9 4 13 16 31 23 31 12z m1995 -25
c3 -6 -1 -7 -9 -4 -18 7 -21 14 -7 14 6 0 13 -4 16 -10z m-2345 -20 c0 -5 -2
-10 -4 -10 -3 0 -8 5 -11 10 -3 6 -1 10 4 10 6 0 11 -4 11 -10z m280 -140 c0
-5 -4 -10 -10 -10 -5 0 -10 5 -10 10 0 6 5 10 10 10 6 0 10 -4 10 -10z m65
-500 c3 -5 2 -10 -4 -10 -5 0 -13 5 -16 10 -3 6 -2 10 4 10 5 0 13 -4 16 -10z
m1980 -180 c-3 -5 -12 -10 -18 -10 -7 0 -6 4 3 10 19 12 23 12 15 0z m-402
-155 c-3 -9 -8 -14 -10 -11 -3 3 -2 9 2 15 9 16 15 13 8 -4z m285 -99 c-7 -8
-15 -12 -17 -11 -5 6 10 25 20 25 5 0 4 -6 -3 -14z m-1324 -142 c3 -8 2 -12
-4 -9 -6 3 -10 10 -10 16 0 14 7 11 14 -7z m155 -38 c11 -14 6 -15 -27 -7 -4
1 8 21 12 21 2 0 9 -6 15 -14z m-709 -26 c-8 -5 -10 -10 -4 -10 7 0 15 -8 18
-17 6 -15 5 -15 -13 1 -21 19 -20 36 2 36 7 0 6 -4 -3 -10z m1713 -31 c-8 -8
-13 -7 -18 2 -5 8 -4 10 3 5 7 -4 12 -2 12 5 0 7 3 9 7 6 4 -4 2 -12 -4 -18z
m-1613 -53 c0 -2 -7 -7 -16 -10 -8 -3 -12 -2 -9 4 6 10 25 14 25 6z m272 -170
c7 4 8 2 4 -5 -9 -13 -26 -5 -25 12 0 9 2 8 6 -1 2 -6 10 -9 15 -6z m89 -53
c13 -16 12 -17 -3 -4 -10 7 -18 15 -18 17 0 8 8 3 21 -13z m224 -35 c5 4 5 1
1 -6 -6 -10 -11 -10 -22 -1 -8 6 -14 14 -14 16 0 3 6 0 13 -6 8 -6 18 -7 22
-3z m318 -11 c4 3 7 1 7 -5 0 -17 -16 -15 -31 6 -12 15 -12 16 2 5 9 -7 19
-10 22 -6z"/>
<path d="M1290 2140 c0 -5 5 -10 11 -10 5 0 7 5 4 10 -3 6 -8 10 -11 10 -2 0
-4 -4 -4 -10z"/>
<path d="M1095 2129 c-4 -6 -5 -12 -2 -15 2 -3 7 2 10 11 7 17 1 20 -8 4z"/>
<path d="M1374 2129 c-4 -7 -3 -9 4 -5 5 3 13 0 15 -6 4 -9 6 -10 6 -1 1 17
-16 25 -25 12z"/>
<path d="M1474 2069 c-4 -7 -3 -10 2 -7 11 7 35 -17 27 -26 -4 -3 -1 -6 5 -6
18 0 14 15 -7 34 -14 13 -21 14 -27 5z"/>
<path d="M706 1967 c3 -10 9 -15 12 -12 3 3 0 11 -7 18 -10 9 -11 8 -5 -6z"/>
<path d="M1126 1919 c2 -5 -9 -6 -26 -4 -17 2 -28 0 -25 -6 4 -5 1 -9 -4 -9
-6 0 -11 -5 -11 -12 0 -6 9 -3 20 7 17 15 23 16 33 5 6 -7 7 -10 1 -7 -6 3
-27 -5 -46 -18 -20 -13 -39 -21 -42 -18 -4 4 -14 8 -22 9 -9 1 -13 0 -10 -3 3
-4 -2 -15 -11 -26 -10 -11 -13 -18 -8 -14 6 3 17 -4 24 -16 8 -12 10 -19 6
-15 -5 4 -14 3 -21 -3 -8 -7 -14 -6 -20 2 -5 8 -3 9 7 4 12 -8 12 -6 0 8 -18
23 -21 21 -15 -5 13 -61 14 -73 5 -58 -5 8 -8 17 -5 21 2 4 0 10 -5 13 -12 8
-2 -65 12 -84 6 -8 -2 -4 -18 10 -16 14 -24 17 -16 8 8 -10 10 -26 5 -40 -6
-20 -5 -21 10 -9 9 8 19 11 23 7 3 -3 1 -6 -5 -6 -7 0 -12 -7 -12 -15 0 -8 5
-15 12 -15 6 0 8 -3 5 -6 -4 -4 -13 -1 -22 6 -9 7 -15 8 -15 2 0 -6 12 -15 28
-20 17 -7 21 -11 10 -11 -10 -1 -18 -6 -18 -12 0 -6 7 -9 14 -6 10 4 13 1 9
-8 -3 -8 -9 -12 -15 -9 -5 3 -4 -4 4 -15 8 -14 20 -20 31 -17 11 3 16 2 13 -1
-3 -4 0 -13 6 -21 12 -13 18 -32 20 -60 1 -9 5 -9 12 -2 15 15 26 12 20 -5 -4
-9 0 -15 9 -15 8 0 18 -7 21 -16 3 -8 11 -12 17 -8 6 3 16 0 21 -7 8 -12 9
-11 5 1 -2 8 -11 14 -19 14 -8 -1 -20 6 -25 16 -9 13 -8 17 3 17 7 0 11 -4 8
-9 -3 -4 4 -8 15 -8 10 0 22 5 24 10 3 6 4 5 3 -2 -5 -19 14 -49 25 -42 6 4 6
11 -2 20 -10 12 -9 13 7 7 17 -6 18 -5 4 13 -14 18 -14 18 2 5 10 -7 15 -18
11 -24 -3 -5 -1 -7 5 -3 5 3 13 0 16 -6 2 -7 4 -2 3 12 -2 24 3 26 43 21 5 0
7 -9 3 -18 -4 -12 0 -11 11 5 10 12 15 26 12 30 -3 5 1 9 9 9 8 0 11 -5 8 -10
-3 -6 -1 -7 5 -3 7 4 22 9 34 11 27 6 44 22 23 22 -8 0 -15 -4 -15 -8 0 -4 -7
-6 -15 -5 -18 3 -20 20 -2 22 33 3 38 5 32 14 -3 6 1 7 9 4 11 -4 16 0 16 11
0 9 -4 13 -10 10 -5 -3 -10 -2 -10 3 0 6 7 13 16 16 24 9 31 7 14 -4 -8 -5
-10 -10 -4 -10 16 0 23 10 18 25 -3 8 -15 12 -26 10 -15 -3 -17 -1 -9 9 6 7 7
17 3 21 -4 5 -1 5 6 1 7 -4 9 -13 6 -19 -5 -9 -3 -8 6 0 11 10 10 16 -6 34
-10 13 -14 19 -8 16 16 -9 27 24 13 37 -9 8 -10 8 -5 -1 3 -6 2 -15 -4 -18 -6
-4 -9 -1 -8 7 2 7 -3 12 -10 10 -10 -2 -10 3 2 20 19 27 22 49 3 23 -11 -14
-16 -15 -22 -5 -5 9 -4 11 3 6 14 -8 11 59 -3 71 -4 5 -5 3 -1 -4 4 -8 -1 -11
-13 -10 -19 1 -19 2 -3 22 9 11 10 14 2 8 -21 -19 -35 -16 -19 4 12 15 12 16
-5 10 -14 -6 -17 -4 -12 8 3 9 2 13 -4 10 -6 -3 -10 -1 -10 5 0 6 -4 8 -10 5
-5 -3 -10 -2 -10 4 0 10 -39 27 -53 23 -5 -1 -6 2 -2 8 3 6 12 7 18 4 9 -5 9
-4 0 6 -6 7 -9 20 -6 29 4 13 3 14 -5 1 -6 -8 -9 -17 -7 -20 1 -3 -4 -11 -12
-19 -13 -12 -14 -11 -8 10 7 22 6 23 -9 9 -16 -12 -17 -12 -14 5 2 14 -3 19
-24 20 -15 1 -25 -2 -22 -6z m30 -18 c-9 -8 -18 -12 -22 -9 -9 10 3 25 21 25
14 0 14 -2 1 -16z m-141 -58 c-2 -10 -4 -19 -4 -21 -1 -2 -6 0 -11 3 -8 5 -7
11 1 21 15 18 18 18 14 -3z m342 -100 c0 -7 -4 -13 -8 -13 -4 0 -9 6 -12 13
-3 8 0 14 7 14 7 0 13 -6 13 -14z m-358 -190 c-6 -7 -15 -10 -20 -7 -13 8 -3
21 15 21 12 0 13 -4 5 -14z"/>
<path d="M1039 1908 c-7 -25 -7 -48 0 -43 6 3 9 14 8 25 -1 17 -5 26 -8 18z"/>
<path d="M596 1881 c-3 -5 1 -11 9 -14 9 -4 12 -1 8 9 -6 16 -10 17 -17 5z"/>
<path d="M1295 1860 c3 -5 8 -10 11 -10 2 0 4 5 4 10 0 6 -5 10 -11 10 -5 0
-7 -4 -4 -10z"/>
<path d="M1385 1690 c-3 -6 1 -7 9 -4 18 7 21 14 7 14 -6 0 -13 -4 -16 -10z"/>
<path d="M1407 1636 c-4 -10 -1 -13 8 -9 8 3 12 9 9 14 -7 12 -11 11 -17 -5z"/>
<path d="M440 1600 c-9 -6 -10 -10 -3 -10 6 0 15 5 18 10 8 12 4 12 -15 0z"/>
<path d="M1669 1522 c12 -22 31 -22 31 0 0 6 -3 8 -7 5 -3 -4 -13 -1 -21 6
-13 10 -14 9 -3 -11z"/>
<path d="M1582 1516 c2 -10 -3 -21 -11 -24 -9 -3 -11 0 -6 8 5 9 4 11 -3 6 -8
-5 -8 -15 -1 -33 l10 -27 -22 19 -22 20 13 -25 c12 -22 12 -24 -2 -12 -13 10
-18 10 -24 1 -4 -7 -3 -9 3 -6 25 16 20 -24 -5 -44 -15 -11 -27 -26 -27 -31 0
-6 -11 -13 -25 -15 -42 -6 -50 -11 -43 -29 4 -11 2 -15 -4 -11 -12 8 -12 -11
0 -30 6 -9 3 -11 -7 -7 -19 7 -38 -4 -30 -18 4 -7 9 -6 14 2 5 7 7 -1 5 -19
-1 -17 -6 -35 -10 -39 -5 -4 -4 0 0 8 8 13 7 13 -8 1 -21 -17 -21 -20 1 -16
23 3 42 -13 35 -32 -5 -12 -1 -14 18 -8 13 3 19 3 13 -2 -13 -10 -27 -46 -15
-38 5 3 12 -1 15 -7 3 -7 3 -2 0 12 -5 23 -4 24 9 8 8 -10 18 -18 22 -18 4 0
4 8 1 18 -6 16 -5 16 7 0 8 -10 18 -14 22 -10 5 4 1 -6 -9 -23 -10 -16 -13
-25 -6 -18 11 10 16 9 27 -5 10 -13 13 -14 11 -2 -2 8 -7 18 -11 21 -5 3 -1 9
8 12 9 4 14 3 11 -1 -2 -4 -1 -14 5 -22 7 -13 9 -12 9 3 0 9 4 17 10 17 5 0 7
-7 4 -15 -4 -8 -2 -15 4 -15 11 0 26 30 23 45 -2 6 1 6 6 2 4 -5 8 -14 8 -20
0 -7 12 -11 27 -11 15 1 25 -2 23 -7 -6 -9 34 -23 42 -15 4 3 -1 6 -10 6 -10
0 -17 7 -17 15 0 8 5 15 11 15 5 0 7 -6 3 -12 -6 -10 -4 -10 8 0 9 7 28 11 42
8 14 -2 25 -2 24 2 -5 16 25 53 37 48 25 -9 27 14 3 24 -21 9 -20 9 9 6 24 -3
30 -1 26 10 -4 12 7 18 29 15 3 0 5 7 3 17 -1 9 3 23 9 31 8 11 8 13 -1 8 -8
-5 -11 -1 -8 13 2 11 1 20 -4 20 -4 0 -7 11 -7 25 0 38 14 13 18 -32 1 -7 6
-13 11 -13 5 0 6 8 2 18 -4 9 -8 29 -9 44 0 14 -4 24 -8 22 -4 -3 -15 -1 -24
4 -15 8 -15 10 0 15 12 5 15 3 10 -6 -4 -6 -3 -8 2 -4 4 4 9 18 10 31 0 17 -4
22 -16 19 -10 -3 -20 2 -24 12 -3 9 -11 13 -16 10 -6 -4 -9 -1 -8 7 2 8 -5 12
-17 10 -16 -2 -17 -1 -5 7 9 7 19 6 27 -1 9 -7 13 -7 13 1 0 6 -5 11 -11 11
-5 0 -7 6 -3 13 5 8 2 7 -9 -2 -20 -16 -27 -12 -30 17 0 11 -5 18 -10 15 -4
-3 -6 -11 -3 -19 3 -7 1 -16 -5 -19 -5 -4 -8 -1 -7 7 2 8 -5 12 -17 10 l-20
-4 20 16 20 16 -20 -7 c-11 -3 -25 -10 -31 -14 -6 -5 -19 0 -32 11 -23 22 -42
26 -42 9 0 -5 4 -7 10 -4 6 3 7 -1 4 -10 -6 -14 -8 -14 -20 2 -7 10 -14 14
-14 8 0 -5 -5 -3 -11 5 -8 13 -9 12 -7 -4z m19 -29 c-10 -9 -11 -8 -5 6 3 10
9 15 12 12 3 -3 0 -11 -7 -18z m256 -93 c-3 -3 -12 -4 -19 -1 -8 3 -5 6 6 6
11 1 17 -2 13 -5z m-418 -76 c-16 -32 -17 -32 -15 -4 0 14 7 26 14 26 10 0 10
-5 1 -22z m416 -98 c-3 -5 -12 -10 -18 -10 -7 0 -6 4 3 10 19 12 23 12 15 0z
m-95 -95 c0 -2 -6 -8 -13 -14 -10 -8 -14 -7 -14 2 0 8 6 14 14 14 7 0 13 -1
13 -2z"/>
<path d="M974 1508 c-4 -6 -3 -8 4 -4 5 3 12 1 14 -5 2 -7 11 -10 18 -7 11 3
10 8 -7 16 -16 9 -24 9 -29 0z"/>
<path d="M1227 1423 c3 -7 8 -13 12 -13 4 0 8 6 8 13 0 8 -6 14 -13 14 -7 0
-10 -6 -7 -14z"/>
<path d="M1480 1399 c-14 -16 -30 -25 -40 -21 -8 3 -12 2 -9 -2 10 -11 49 -16
46 -6 -1 5 11 20 27 33 16 13 23 24 15 23 -8 0 -25 -12 -39 -27z"/>
<path d="M1375 1300 c-3 -5 -1 -10 4 -10 6 0 11 5 11 10 0 6 -2 10 -4 10 -3 0
-8 -4 -11 -10z"/>
<path d="M2250 1301 c0 -6 4 -13 10 -16 6 -3 7 1 4 9 -7 18 -14 21 -14 7z"/>
<path d="M2253 1249 c-2 -23 3 -25 10 -4 4 8 3 16 -1 19 -4 3 -9 -4 -9 -15z"/>
<path d="M1364 1242 c3 -5 0 -12 -6 -15 -7 -2 -10 -7 -7 -11 3 -4 12 0 18 8 9
11 9 16 0 22 -7 4 -9 3 -5 -4z"/>
<path d="M1159 1164 c15 -30 2 -37 -21 -11 l-19 22 10 -22 c7 -14 8 -24 1 -28
-10 -6 -14 1 -11 18 1 5 -3 5 -9 2 -6 -4 -9 -13 -6 -21 3 -8 0 -13 -7 -11 -7
1 -11 -4 -9 -12 3 -12 0 -12 -12 -2 -16 13 -40 6 -31 -9 3 -5 0 -12 -6 -16 -7
-4 -10 -3 -7 2 3 5 0 14 -7 21 -10 10 -14 9 -19 -2 -3 -8 -1 -17 4 -20 6 -4
10 -12 10 -18 0 -9 -2 -9 -8 0 -5 9 -11 8 -22 0 -20 -16 -23 -36 -10 -52 7 -9
7 -15 1 -19 -5 -4 -14 2 -20 11 -14 25 -14 7 1 -20 10 -20 10 -21 -5 -8 -22
17 -22 8 -1 -13 9 -9 17 -22 18 -29 1 -6 6 -19 11 -27 8 -13 7 -13 -8 -1 -9 7
-15 16 -13 20 3 4 -4 12 -14 18 -15 10 -14 5 7 -35 17 -32 19 -40 6 -24 -18
21 -19 22 -19 3 0 -11 4 -17 9 -14 5 3 6 -4 3 -15 -4 -11 -2 -23 3 -26 6 -4 8
-14 5 -24 -5 -14 -4 -14 4 -2 6 8 8 18 6 22 -3 4 0 8 6 8 6 0 9 -8 6 -18 -4
-10 1 -27 10 -38 8 -10 12 -13 8 -5 -5 10 -3 12 6 6 10 -6 10 -11 -3 -20 -28
-20 -19 -27 11 -8 23 15 25 15 14 2 -10 -14 -9 -19 11 -32 15 -10 29 -12 39
-6 13 7 15 5 11 -14 -6 -21 -6 -21 16 3 12 14 20 21 19 15 -2 -5 8 -21 21 -34
16 -16 22 -19 18 -8 -6 17 -4 19 31 20 9 1 21 6 25 12 5 6 7 4 4 -5 -2 -8 -10
-14 -16 -12 -6 1 -11 -3 -11 -9 0 -6 7 -9 15 -6 8 4 17 2 20 -4 8 -12 25 -2
25 14 0 7 -4 6 -11 -3 -8 -12 -10 -12 -7 -1 2 8 17 16 32 18 18 3 25 0 21 -7
-4 -6 -1 -9 7 -8 7 2 12 -3 10 -10 -1 -8 2 -11 8 -7 6 3 8 11 5 16 -4 5 -1 9
4 9 6 0 11 5 11 11 0 8 -6 7 -17 -2 -16 -12 -17 -12 -6 2 7 9 9 20 5 25 -4 5
3 1 15 -9 25 -21 32 -14 27 28 -2 26 -1 27 8 11 8 -15 12 -16 19 -5 11 18 12
32 1 25 -4 -2 -9 4 -9 16 -2 17 1 16 24 -9 22 -25 24 -25 13 -4 -11 21 -10 23
4 18 11 -4 15 -3 11 4 -4 6 -14 8 -22 5 -8 -3 -11 -1 -8 5 4 5 1 17 -6 25 -10
12 -10 15 2 12 8 -2 13 3 11 10 -1 8 2 11 8 7 7 -5 8 -11 1 -19 -7 -8 -4 -16
12 -26 21 -12 21 -12 7 5 -12 15 -13 19 -1 23 9 3 10 6 2 11 -14 9 -22 47 -14
66 3 8 10 12 16 8 6 -3 7 -1 3 6 -6 8 -11 9 -20 1 -10 -8 -13 -2 -10 30 1 22
-1 42 -6 45 -5 3 -7 -4 -5 -16 3 -12 1 -29 -4 -37 -5 -10 -8 2 -6 31 1 26 -2
44 -8 40 -5 -3 -6 4 -2 18 4 17 3 20 -3 10 -8 -11 -11 -11 -16 0 -3 8 -3 4 -1
-8 3 -12 2 -24 -3 -27 -6 -3 -10 0 -9 7 0 6 -1 23 -2 37 -2 23 -3 24 -11 5 -8
-18 -10 -16 -14 14 0 5 -5 13 -10 18 -5 5 -6 3 -2 -4 4 -8 2 -13 -6 -13 -9 0
-9 -3 2 -10 12 -7 10 -9 -7 -8 -12 1 -19 7 -16 15 3 7 -2 20 -11 28 -9 9 -16
12 -16 7 0 -6 -7 -13 -16 -16 -14 -5 -15 -4 -5 8 9 11 8 15 -5 20 -22 8 -26 8
-20 -3 4 -5 -2 -7 -13 -4 -10 3 -22 0 -25 -6 -4 -6 -11 -11 -17 -11 -5 0 -1 8
9 18 9 10 22 18 27 17 6 -1 6 0 2 3 -4 2 -2 11 5 20 10 15 9 15 -7 0 -17 -16
-19 -16 -32 0 -13 15 -13 15 -4 -4z m108 -79 c-15 -16 -19 -13 -11 9 3 9 10
13 15 10 5 -3 3 -11 -4 -19z m-257 -285 c0 -5 -5 -10 -11 -10 -5 0 -7 5 -4 10
3 6 8 10 11 10 2 0 4 -4 4 -10z m46 -71 c4 -8 9 -7 15 2 4 7 11 11 14 8 3 -4
0 -11 -7 -17 -9 -7 -19 -6 -32 4 -11 8 -15 14 -9 14 7 0 15 -5 19 -11z"/>
<path d="M1385 1170 c-4 -6 -11 -7 -17 -4 -7 4 -8 2 -4 -5 6 -9 12 -9 24 1 10
7 19 14 21 15 2 2 -1 3 -7 3 -6 0 -14 -5 -17 -10z"/>
<path d="M1085 1160 c-3 -5 -1 -10 4 -10 6 0 11 5 11 10 0 6 -2 10 -4 10 -3 0
-8 -4 -11 -10z"/>
<path d="M1053 1128 c-13 -6 -23 -15 -23 -21 0 -5 6 -4 14 2 8 6 19 10 26 9 7
-2 15 3 17 10 6 14 -4 14 -34 0z"/>
<path d="M1470 1100 c-9 -6 -10 -10 -3 -10 6 0 15 5 18 10 8 12 4 12 -15 0z"/>
<path d="M1590 1084 c0 -5 9 -15 21 -22 12 -8 18 -9 15 -4 -3 6 -3 12 1 15 5
2 3 3 -3 1 -6 -1 -17 3 -23 9 -6 6 -11 7 -11 1z"/>
<path d="M1713 1075 c0 -8 4 -12 9 -9 5 3 6 10 3 15 -9 13 -12 11 -12 -6z"/>
<path d="M1416 1042 c-3 -5 1 -9 9 -9 8 0 12 4 9 9 -3 4 -7 8 -9 8 -2 0 -6 -4
-9 -8z"/>
<path d="M1430 979 c0 -5 5 -7 10 -4 6 3 10 8 10 11 0 2 -4 4 -10 4 -5 0 -10
-5 -10 -11z"/>
<path d="M2170 939 c0 -5 5 -7 10 -4 6 3 10 8 10 11 0 2 -4 4 -10 4 -5 0 -10
-5 -10 -11z"/>
<path d="M1435 880 c3 -5 8 -10 11 -10 2 0 4 5 4 10 0 6 -5 10 -11 10 -5 0 -7
-4 -4 -10z"/>
<path d="M2140 869 c0 -5 5 -7 10 -4 6 3 10 8 10 11 0 2 -4 4 -10 4 -5 0 -10
-5 -10 -11z"/>
<path d="M635 810 c3 -5 8 -10 11 -10 2 0 4 5 4 10 0 6 -5 10 -11 10 -5 0 -7
-4 -4 -10z"/>
<path d="M1113 685 c0 -8 4 -15 9 -15 4 0 8 4 8 9 0 6 -4 12 -8 15 -5 3 -9 -1
-9 -9z"/>
<path d="M756 681 c-3 -5 1 -11 9 -14 9 -4 12 -1 8 9 -6 16 -10 17 -17 5z"/>
<path d="M1278 663 c7 -3 16 -2 19 1 4 3 -2 6 -13 5 -11 0 -14 -3 -6 -6z"/>
<path d="M915 551 c-3 -5 -1 -12 5 -16 5 -3 10 1 10 9 0 18 -6 21 -15 7z"/>
<path d="M1849 543 c-13 -15 -12 -15 11 -3 34 17 36 20 18 20 -9 0 -22 -7 -29
-17z"/>
<path d="M1746 493 c-6 -14 -5 -15 5 -6 7 7 10 15 7 18 -3 3 -9 -2 -12 -12z"/>
<path d="M1708 493 c7 -3 16 -2 19 1 4 3 -2 6 -13 5 -11 0 -14 -3 -6 -6z"/>
<path d="M1256 447 c3 -10 9 -15 12 -12 3 3 0 11 -7 18 -10 9 -11 8 -5 -6z"/>
<path d="M1396 442 c-3 -5 1 -9 9 -9 8 0 12 4 9 9 -3 4 -7 8 -9 8 -2 0 -6 -4
-9 -8z"/>
<path d="M1520 2560 c-8 -5 -12 -12 -9 -15 4 -3 12 1 19 10 14 17 11 19 -10 5z"/>
<path d="M1610 2550 c0 -5 5 -10 11 -10 5 0 7 5 4 10 -3 6 -8 10 -11 10 -2 0
-4 -4 -4 -10z"/>
<path d="M430 2219 c0 -5 5 -7 10 -4 6 3 10 8 10 11 0 2 -4 4 -10 4 -5 0 -10
-5 -10 -11z"/>
<path d="M2250 2059 c0 -5 5 -7 10 -4 6 3 10 8 10 11 0 2 -4 4 -10 4 -5 0 -10
-5 -10 -11z"/>
<path d="M2395 1940 c3 -5 8 -10 11 -10 2 0 4 5 4 10 0 6 -5 10 -11 10 -5 0
-7 -4 -4 -10z"/>
<path d="M207 1919 c7 -7 15 -10 18 -7 3 3 -2 9 -12 12 -14 6 -15 5 -6 -5z"/>
<path d="M2466 1778 c3 -5 10 -6 15 -3 13 9 11 12 -6 12 -8 0 -12 -4 -9 -9z"/>
<path d="M2514 1563 c10 -11 37 -12 30 -2 -3 5 -12 9 -21 9 -9 0 -13 -3 -9 -7z"/>
<path d="M95 1100 c-3 -5 1 -10 10 -10 9 0 13 5 10 10 -3 6 -8 10 -10 10 -2 0
-7 -4 -10 -10z"/>
<path d="M317 569 c7 -7 15 -10 18 -7 3 3 -2 9 -12 12 -14 6 -15 5 -6 -5z"/>
<path d="M358 503 c7 -3 16 -2 19 1 4 3 -2 6 -13 5 -11 0 -14 -3 -6 -6z"/>
<path d="M576 288 c3 -5 10 -6 15 -3 13 9 11 12 -6 12 -8 0 -12 -4 -9 -9z"/>
<path d="M1955 200 c-3 -5 -1 -10 4 -10 6 0 11 5 11 10 0 6 -2 10 -4 10 -3 0
-8 -4 -11 -10z"/>
<path d="M1816 131 c-4 -5 -2 -12 3 -15 5 -4 12 -2 15 3 4 5 2 12 -3 15 -5 4
-12 2 -15 -3z"/>
<path d="M1781 113 c-7 -8 -11 -16 -8 -19 2 -2 10 2 17 11 17 20 9 27 -9 8z"/>
<path d="M980 96 c0 -2 8 -10 18 -17 15 -13 16 -12 3 4 -13 16 -21 21 -21 13z"/>
<path d="M1176 51 c-4 -5 -2 -12 3 -15 5 -4 12 -2 15 3 4 5 2 12 -3 15 -5 4
-12 2 -15 -3z"/>
<path d="M1215 50 c3 -5 8 -10 11 -10 2 0 4 5 4 10 0 6 -5 10 -11 10 -5 0 -7
-4 -4 -10z"/>
</g>
</svg>
